<svg xmlns="http://www.w3.org/2000/svg" viewBox="0 0 801 801"><defs><style>.cls-1{fill:#fff;stroke:#231f20;stroke-miterlimit:10;}</style></defs><title>001ai</title><g id="Layer_2" data-name="Layer 2"><rect class="cls-1" x="0.5" y="0.5" width="800" height="800"/></g><g id="Layer_1" data-name="Layer 1"><rect class="cls-1" x="0.5" y="60.5" width="200" height="200"/><rect class="cls-1" x="380.5" y="87.5" width="202" height="167" rx="12" ry="12"/><ellipse class="cls-1" cx="131.5" cy="435.5" rx="50" ry="114"/><circle class="cls-1" cx="406.75" cy="399.75" r="54.25"/><polygon class="cls-1" points="330.5 517.8 361.51 571.5 330.5 625.2 268.5 625.2 237.49 571.5 268.5 517.8 330.5 517.8"/><polygon class="cls-1" points="548.5 511.23 567.98 550.69 611.52 557.02 580.01 587.74 587.45 631.11 548.5 610.63 509.55 631.11 516.99 587.74 485.48 557.02 529.02 550.69 548.5 511.23"/><polygon class="cls-1" points="654.5 622.79 670.58 655.37 706.53 660.59 680.51 685.95 686.66 721.76 654.5 704.85 622.34 721.76 628.49 685.95 602.47 660.59 638.42 655.37 654.5 622.79"/><polygon class="cls-1" points="565.5 336.39 577.58 360.87 604.6 364.8 585.05 383.85 589.66 410.76 565.5 398.06 541.34 410.76 545.95 383.85 526.4 364.8 553.42 360.87 565.5 336.39"/><polygon class="cls-1" points="119.5 655.28 130.44 677.45 154.9 681 137.2 698.25 141.38 722.61 119.5 711.11 97.62 722.61 101.8 698.25 84.1 681 108.56 677.45 119.5 655.28"/><path class="cls-1" d="M639,195c11.52-13.43,8.63-19.3,18-29,2.05-2.12,16.78-16.88,38-15,13.23,1.17,28.75,8.79,35,23,5.71,13,1.46,26.4,0,31-5.16,16.27-15.52,21.18-13,27,3,6.89,17.87.87,33,11,7.8,5.22,16.36,15.2,14,21-3.6,8.84-31.84,6.13-54,4-26.85-2.58-32.63-6.62-44-2-17.12,7-20.26,22.73-28,21-8.67-1.94-15.92-24.23-8-38,10.47-18.19,44.16-15.81,44-20-.19-5.22-52.28-4.32-54-15C619.28,209.56,628,207.81,639,195Z" transform="translate(0.5 0.5)"/></g></svg>