<svg id="Layer_1" data-name="Layer 1" xmlns="http://www.w3.org/2000/svg" viewBox="0 0 563.89 371.01"
     xmlns:xlink="http://www.w3.org/1999/xhtml">
    <a xlink:href="index.html">
        <path class="cls-1"
              d="M97.75,141l17.13-21,27.81-2,16.81,2v6l2.5,7,7,1,16,3,22,2s13-5,17,10,109,38,36,134-99,40-99,40S60,308,47,256s7-107,7-107,21,108,63,80,31-54,31-54Z"
              transform="translate(-42.11 -117.5)"/>
    </a>
    <polygon class="cls-1"
             points="255.64 319.5 296.77 321.5 298.83 360.5 371.86 370.5 459.88 344.5 421.88 286.5 328.89 290.5 350.89 211.5 545.89 259.5 550.89 176.5 383.89 170.5 333.89 129.5 465.64 86.5 563.39 114.5 563.39 51.5 388.64 43.5 272.89 45.5 255.64 319.5"/>
</svg>